#!OML:ASF H:\GeneralSubjects\Female5\Project 1\Capture day 1\Session 1\Female5.ASF
:FULLY-SPECIFIED
:DEGREES
894
root -23.972 16.1934 1.02345 -168.299 3.3237 -179.534
lowerback 8.94296 0.120406 5.78179
upperback -9.19262 2.3896 3.51897
thorax -15.2983 1.07815 0.0972014
lowerneck -15.0598 4.19964 6.00075
upperneck 27.5313 10.096 -11.6024
head 12.5573 4.52865 -3.69848
rclavicle 1.5207e-014 -1.59028e-014
rhumerus -55.4705 14.3196 -71.125
rradius 36.5788
rwrist -15.8847
rhand -29.0012 -19.5334
rfingers 7.12502
rthumb -2.35282 -49.5002
lclavicle 1.5207e-014 -1.59028e-014
lhumerus -48.7126 7.56268 73.5209
lradius 33.3133
lwrist -4.18475
lhand -29.0888 26.8044
lfingers 7.12502
lthumb -2.43743 56.7702
rfemur -10.3696 9.08407 29.6016
rtibia 7.07299
rfoot -12.3934 -9.29642
rtoes -24.719
lfemur -25.4102 0.152282 -26.5715
ltibia 35.3001
lfoot -7.53381 -10.1663
ltoes -56.1454
895
root -24.0537 16.197 1.03261 -168.032 3.43861 -179.386
lowerback 9.03337 0.135338 6.00949
upperback -9.22187 2.49129 3.62696
thorax -15.3931 1.1138 0.0672526
lowerneck -15.4295 4.30744 6.18843
upperneck 27.4555 10.2708 -11.9603
head 12.6618 4.56329 -3.83307
rclavicle -1.49089e-015 -3.18055e-015
rhumerus -54.9712 14.336 -70.8618
rradius 36.4891
rwrist -15.639
rhand -28.924 -19.4424
rfingers 7.12502
rthumb -2.2783 -49.41
lclavicle -1.49089e-015 -3.18055e-015
lhumerus -48.9008 7.31972 73.5776
lradius 33.0853
lwrist -4.20371
lhand -28.5139 26.6537
lfingers 7.12502
lthumb -1.88219 56.6252
rfemur -10.9055 11.1675 29.4699
rtibia 7.58803
rfoot -13.0769 -11.1261
rtoes -23.4521
lfemur -27.1428 1.06779 -26.164
ltibia 37.9598
lfoot -6.65681 -11.3343
ltoes -55.3533
896
root -24.1327 16.2031 1.03392 -167.82 3.54178 -179.386
lowerback 9.0283 0.137475 6.05064
upperback -9.22328 2.51981 3.70417
thorax -15.3952 1.1321 0.124227
lowerneck -15.5939 4.41289 6.19648
upperneck 27.2025 10.4051 -12.1625
head 12.6264 4.58525 -3.88278
rclavicle 1.05356e-014 -6.36111e-015
rhumerus -54.3719 14.1723 -70.5267
rradius 36.3102
rwrist -15.3421
rhand -28.9624 -19.3325
rfingers 7.12502
rthumb -2.3154 -49.2997
lclavicle 1.05356e-014 -6.36111e-015
lhumerus -49.1038 7.25259 73.4451
lradius 32.8293
lwrist -4.32557
lhand -28.5591 26.6056
lfingers 7.12502
lthumb -1.92587 56.5766
rfemur -11.3964 12.656 29.1949
rtibia 8.16054
rfoot -13.8184 -12.6095
rtoes -23.2612
lfemur -28.7753 2.54198 -26.2532
ltibia 39.0079
lfoot -0.718318 -12.5084
ltoes -31.8085
897
root -24.216 16.2081 1.02946 -167.733 3.65651 -179.659
lowerback 9.02855 0.142289 5.88032
upperback -9.19758 2.47735 3.66283
thorax -15.3648 1.12335 0.182542
lowerneck -15.5353 4.50002 6.38761
upperneck 26.6685 10.4951 -12.623
head 12.4547 4.58946 -4.06984
rclavicle -2.40529e-014 1.20861e-013
rhumerus -54.0247 14.1252 -70.3716
rradius 36.4639
rwrist -15.4106
rhand -29.1022 -19.208
rfingers 7.12502
rthumb -2.45045 -49.1736
lclavicle -2.40529e-014 1.20861e-013
lhumerus -49.2693 7.22581 73.1953
lradius 32.4782
lwrist -4.41184
lhand -29.0452 26.7782
lfingers 7.12502
lthumb -2.39537 56.7445
rfemur -11.7056 13.1747 28.5867
rtibia 8.56792
rfoot -14.2489 -13.1881
rtoes -23.2235
lfemur -30.0485 3.55009 -26.4076
ltibia 40.1525
lfoot -3.24747 -12.1672
ltoes -36.2226
898
root -24.3005 16.2134 1.01985 -167.791 3.74832 -179.971
lowerback 9.09823 0.12182 5.59259
upperback -9.14108 2.36689 3.5862
thorax -15.3428 1.08752 0.281394
lowerneck -15.5976 4.60432 6.51317
upperneck 26.4333 10.5704 -12.7463
head 12.3995 4.60938 -4.12168
rclavicle 1.71949e-014 -5.56597e-014
rhumerus -53.7467 14.2572 -70.4649
rradius 36.6754
rwrist -15.7737
rhand -29.1905 -19.2262
rfingers 7.12502
rthumb -2.53564 -49.1909
lclavicle 1.71949e-014 -5.56597e-014
lhumerus -49.3831 7.22897 72.8108
lradius 32.0141
lwrist -4.36214
lhand -29.4308 26.7814
lfingers 7.12502
lthumb -2.76771 56.7432
rfemur -11.7377 13.088 27.8944
rtibia 8.70736
rfoot -14.3725 -13.1541
rtoes -23.6348
lfemur -30.8987 4.15817 -26.211
ltibia 41.0959
lfoot -5.52202 -11.8099
ltoes -38.7395
